<svg width="220" height="52" viewBox="0 0 220 52" fill="none" xmlns="http://www.w3.org/2000/svg">
<path d="M43.2 15.8597H45.9C47.1666 15.8597 48.2 16.0597 49 16.4597C49.8 16.7931 50.5 17.3598 51.1 18.1598C51.6333 18.9598 52.3 20.1264 53.1 21.6598L55.2 25.8597L57.3 21.6598C58.0333 20.1264 58.7 18.9598 59.3 18.1598C59.8333 17.3598 60.5 16.7931 61.3 16.4597C62.1 16.0597 63.1666 15.8597 64.5 15.8597H67.1V41.0598H62.5V21.1598C62.2333 21.1598 62 21.2931 61.8 21.5598C61.6 21.8264 61.3 22.2931 60.9 22.9597L55.2 33.6598L49.4 22.9597C49.0666 22.2931 48.8 21.8264 48.6 21.5598C48.4 21.2931 48.1333 21.1598 47.8 21.1598V41.0598H43.2V15.8597Z" fill="white"/>
<path d="M73.2 15.8597H78.3V41.0598H73.2V15.8597Z" fill="white"/>
<path d="M85.5 39.0598C84.1667 37.7264 83.5 35.7931 83.5 33.2598V15.8597H88.6V33.2598C88.6 34.5931 88.9 35.5598 89.5 36.1598C90.0333 36.8264 90.9 37.1598 92.1 37.1598H95.2V41.0598H92.1C89.0333 41.0598 86.8333 40.3931 85.5 39.0598Z" fill="white"/>
<path d="M100.2 39.0598C98.8666 37.7264 98.2 35.7931 98.2 33.2598V15.8597H103.3V33.2598C103.3 34.5931 103.6 35.5598 104.2 36.1598C104.733 36.8264 105.6 37.1598 106.8 37.1598H109.9V41.0598H106.8C103.733 41.0598 101.533 40.3931 100.2 39.0598Z" fill="white"/>
<path d="M115.3 39.1597C113.567 37.6264 112.7 35.3597 112.7 32.3597V24.6597C112.7 21.5931 113.567 19.2931 115.3 17.7597C117.1 16.2264 119.7 15.4597 123.1 15.4597C125.433 15.4597 127.333 15.8597 128.8 16.6597C130.333 17.3931 131.533 18.5597 132.4 20.1597L128.8 22.6597C128.067 21.5264 127.3 20.6931 126.5 20.1597C125.7 19.6931 124.567 19.4597 123.1 19.4597C121.233 19.4597 119.867 19.8931 119 20.7597C118.133 21.6264 117.7 22.9264 117.7 24.6597V32.3597C117.7 34.093 118.133 35.3931 119 36.2597C119.867 37.1264 121.233 37.5597 123.1 37.5597C124.633 37.5597 125.833 37.2931 126.7 36.7597C127.633 36.2264 128.433 35.3597 129.1 34.1597L132.7 36.7597C131.9 37.8931 131.1 38.7931 130.3 39.4597C129.5 40.1264 128.533 40.6264 127.4 40.9597C126.2 41.2931 124.767 41.4597 123.1 41.4597C119.7 41.4597 117.1 40.6931 115.3 39.1597Z" fill="white"/>
<path d="M137.7 39.0598C136.433 37.7264 135.8 35.7931 135.8 33.2598V15.8597H140.8V33.2598C140.8 34.5931 141.1 35.5598 141.7 36.1598C142.233 36.8264 143.1 37.1598 144.3 37.1598H147.4V41.0598H144.3C141.233 41.0598 139.033 40.3931 137.7 39.0598Z" fill="white"/>
<path fill-rule="evenodd" clip-rule="evenodd" d="M152.8 39.1597C151.067 37.6264 150.2 35.3597 150.2 32.3597V24.6597C150.2 21.5931 151.067 19.2931 152.8 17.7597C154.6 16.2264 157.167 15.4597 160.5 15.4597C163.833 15.4597 166.367 16.2264 168.1 17.7597C169.9 19.2931 170.8 21.5931 170.8 24.6597V32.3597C170.8 35.3597 169.9 37.6264 168.1 39.1597C166.367 40.6931 163.833 41.4597 160.5 41.4597C157.167 41.4597 154.6 40.6931 152.8 39.1597ZM164.3 36.1597C165.233 35.2931 165.7 34.0264 165.7 32.3597V24.6597C165.7 22.9931 165.233 21.6931 164.3 20.7597C163.433 19.8931 162.167 19.4597 160.5 19.4597C158.833 19.4597 157.533 19.8931 156.6 20.7597C155.733 21.6931 155.3 22.9931 155.3 24.6597V32.3597C155.3 34.0264 155.733 35.2931 156.6 36.1597C157.533 37.0931 158.833 37.5597 160.5 37.5597C162.167 37.5597 163.433 37.0931 164.3 36.1597Z" fill="white"/>
<path d="M177.4 39.1597C175.6 37.6264 174.7 35.3597 174.7 32.3597V24.6597C174.7 21.5931 175.6 19.2931 177.4 17.7597C179.133 16.2264 181.7 15.4597 185.1 15.4597C187.433 15.4597 189.367 15.8597 190.9 16.6597C192.367 17.3931 193.567 18.5597 194.5 20.1597L190.8 22.6597C190.067 21.5264 189.3 20.6931 188.5 20.1597C187.7 19.6931 186.567 19.4597 185.1 19.4597C183.233 19.4597 181.9 19.8931 181.1 20.7597C180.233 21.6264 179.8 22.9264 179.8 24.6597V32.3597C179.8 34.093 180.233 35.3931 181.1 36.2597C181.9 37.1264 183.233 37.5597 185.1 37.5597C186.7 37.5597 187.933 37.2931 188.8 36.7597C189.667 36.2264 190.467 35.3597 191.2 34.1597L194.7 36.7597C193.967 37.8931 193.2 38.7931 192.4 39.4597C191.6 40.1264 190.6 40.6264 189.4 40.9597C188.267 41.2931 186.833 41.4597 185.1 41.4597C181.7 41.4597 179.133 40.6931 177.4 39.1597Z" fill="white"/>
<path d="M213.5 27.1598C214.233 27.6931 214.833 28.4264 215.3 29.3597C215.833 30.2264 216.367 31.4598 216.9 33.0598L219.8 41.0598H214.7L211.9 33.5598C211.567 32.6264 211.267 31.8931 211 31.3597C210.733 30.8931 210.367 30.4931 209.9 30.1598C209.367 29.8264 208.633 29.5931 207.7 29.4597L203.8 33.7598V41.0598H198.7V15.8597H203.8V27.4597L214 15.8597H219.9L210.9 25.8597C211.967 26.1264 212.833 26.5598 213.5 27.1598Z" fill="white"/>
<path fill-rule="evenodd" clip-rule="evenodd" d="M182 50.4596C182.133 50.393 182.3 50.293 182.5 50.1596L183.4 50.8596C183 51.393 182.3 51.6596 181.3 51.6596C180.5 51.6596 179.9 51.5263 179.5 51.2596C179.1 50.9263 178.9 50.393 178.9 49.6596V48.0596C178.9 47.5263 179.133 47.093 179.6 46.7596C180 46.4263 180.533 46.2596 181.2 46.2596C181.933 46.2596 182.5 46.4263 182.9 46.7596C183.3 47.093 183.5 47.593 183.5 48.2596C183.5 48.593 183.5 48.8596 183.5 49.0596C183.433 49.2596 183.3 49.393 183.1 49.4596C182.967 49.5263 182.733 49.5596 182.4 49.5596H180.4V49.6596C180.4 50.3263 180.7 50.6596 181.3 50.6596C181.567 50.6596 181.8 50.593 182 50.4596ZM180.6 47.5596C180.467 47.693 180.4 47.893 180.4 48.1596V48.5596H181.6C181.8 48.5596 181.933 48.5263 182 48.4596C182.067 48.4596 182.1 48.3596 182.1 48.1596C182.1 47.893 182.033 47.693 181.9 47.5596C181.767 47.4263 181.533 47.3596 181.2 47.3596C180.933 47.3596 180.733 47.4263 180.6 47.5596Z" fill="white"/>
<path d="M185.3 51.5596C185.033 51.493 184.833 51.393 184.7 51.2596C184.5 51.1263 184.333 50.9596 184.2 50.7596L185.1 49.9596C185.3 50.2263 185.467 50.393 185.6 50.4596C185.8 50.5263 186.033 50.5596 186.3 50.5596C186.633 50.5596 186.867 50.5263 187 50.4596C187.133 50.393 187.2 50.2596 187.2 50.0596C187.2 49.9263 187.1 49.8263 186.9 49.7596C186.7 49.6263 186.367 49.5263 185.9 49.4596C184.833 49.2596 184.3 48.693 184.3 47.7596C184.3 47.293 184.5 46.9263 184.9 46.6596C185.233 46.393 185.733 46.2596 186.4 46.2596C186.933 46.2596 187.333 46.3263 187.6 46.4596C187.933 46.593 188.2 46.8263 188.4 47.1596L187.5 47.8596C187.3 47.6596 187.133 47.5263 187 47.4596C186.8 47.393 186.6 47.3596 186.4 47.3596C185.933 47.3596 185.7 47.5263 185.7 47.8596C185.7 47.993 185.767 48.093 185.9 48.1596C186.033 48.293 186.233 48.3596 186.5 48.3596C186.967 48.493 187.333 48.593 187.6 48.6596C187.867 48.793 188.1 48.9596 188.3 49.1596C188.433 49.4263 188.5 49.7596 188.5 50.1596C188.5 50.693 188.333 51.093 188 51.3596C187.6 51.5596 187.033 51.6596 186.3 51.6596C185.9 51.6596 185.567 51.6263 185.3 51.5596Z" fill="white"/>
<path d="M191 47.4597V49.6598C191 49.9264 191.033 50.1264 191.1 50.2598C191.167 50.3931 191.333 50.4597 191.6 50.4597H192.5V51.5598H191.6C191.067 51.5598 190.667 51.4931 190.4 51.3597C190.067 51.2264 189.833 51.0264 189.7 50.7598C189.567 50.4931 189.5 50.1264 189.5 49.6598V45.5598C189.5 45.3598 189.467 45.1931 189.4 45.0598C189.333 44.9931 189.2 44.8598 189 44.6598L190 43.8597C190.333 44.0597 190.567 44.2931 190.7 44.5598C190.9 44.7598 191 45.0931 191 45.5598V46.3597H192.5V47.4597H191Z" fill="white"/>
<path d="M202 50.4596V51.5596H196.3V50.4596L198.5 48.5596C199.033 48.1596 199.433 47.793 199.7 47.4596C199.9 47.193 200.067 46.9596 200.2 46.7596C200.267 46.5596 200.3 46.3263 200.3 46.0596C200.3 45.6596 200.167 45.3596 199.9 45.1596C199.633 44.9596 199.267 44.8596 198.8 44.8596C198.067 44.8596 197.5 45.1263 197.1 45.6596L196.5 44.6596C196.833 44.3263 197.2 44.093 197.6 43.9596C198 43.8263 198.467 43.7596 199 43.7596C199.733 43.7596 200.4 43.9263 201 44.2596C201.533 44.593 201.8 45.193 201.8 46.0596C201.8 46.9263 201.3 47.793 200.3 48.6596L198.3 50.4596H202Z" fill="white"/>
<path fill-rule="evenodd" clip-rule="evenodd" d="M203.7 50.9596C203.233 50.4263 203 49.693 203 48.7596V46.5596C203 45.6263 203.233 44.9263 203.7 44.4596C204.233 43.993 204.933 43.7596 205.8 43.7596C206.733 43.7596 207.433 43.993 207.9 44.4596C208.433 44.9263 208.7 45.6263 208.7 46.5596V48.7596C208.7 49.693 208.433 50.4263 207.9 50.9596C207.433 51.4263 206.733 51.6596 205.8 51.6596C204.933 51.6596 204.233 51.4263 203.7 50.9596ZM206.9 50.1596C207.1 49.8263 207.2 49.3596 207.2 48.7596V46.5596C207.2 45.9596 207.1 45.5263 206.9 45.2596C206.633 44.993 206.267 44.8596 205.8 44.8596C205.4 44.8596 205.067 44.993 204.8 45.2596C204.6 45.5263 204.5 45.9596 204.5 46.5596V48.7596C204.5 49.3596 204.6 49.8263 204.8 50.1596C205.067 50.4263 205.4 50.5596 205.8 50.5596C206.267 50.5596 206.633 50.4263 206.9 50.1596Z" fill="white"/>
<path d="M212.9 43.8597V51.5598H211.5V45.1598L209.7 46.1598V44.9597L211.5 43.8597H212.9Z" fill="white"/>
<path d="M220 50.4596V51.5596H214.3V50.4596L216.5 48.5596C217.033 48.1596 217.4 47.793 217.6 47.4596C217.867 47.193 218.067 46.9596 218.2 46.7596C218.267 46.5596 218.3 46.3263 218.3 46.0596C218.3 45.6596 218.167 45.3596 217.9 45.1596C217.633 44.9596 217.267 44.8596 216.8 44.8596C216.067 44.8596 215.5 45.1263 215.1 45.6596L214.5 44.6596C214.833 44.3263 215.2 44.093 215.6 43.9596C216 43.8263 216.433 43.7596 216.9 43.7596C217.7 43.7596 218.4 43.9263 219 44.2596C219.533 44.593 219.8 45.193 219.8 46.0596C219.8 46.9263 219.267 47.793 218.2 48.6596L216.2 50.4596H220Z" fill="white"/>
<path fill-rule="evenodd" clip-rule="evenodd" d="M26.8 15.1597L27.9 13.3596L26.7 11.3596H24.6L23.5 9.45966H21.4L20.3 7.65967H18.1L17 9.45966H15L14 7.65967H11.7L10.6 9.45966H8.60001L7.60001 7.65967H5.3L4.2 9.45966H2.10001L1 11.4597L2 13.3596L1 15.1597L2 16.9597L1 18.8596L2 20.6597L1 22.4597L2 24.3596L1 26.1597L2 28.0597L1 29.8596L2 31.6597L1 33.5597L2 35.3596L1 37.2597L2.10001 39.1597H4.2L5.3 41.0597H7.60001L8.60001 39.1597H10.6L11.7 41.0597H14L15 39.1597H17L18.1 41.0597H20.3L21.4 39.1597H23.4L24.5 41.0597H26.7L27.9 39.0597L26.8 37.2597L27.9 35.3596L26.8 33.5597L27.9 31.6597L26.8 29.8596L27.9 28.0597L26.8 26.1597L27.9 24.3596L26.8 22.4597L27.9 20.6597L26.8 18.8596L27.9 16.9597L26.8 15.1597ZM23.4 17.1597L24.3 18.8596L23.4 20.5597H21.4L20.4 18.8596L21.4 17.1597H23.4ZM21.4 31.6597L20.4 29.8596L21.4 28.1597H23.4L24.4 29.8596L23.4 31.6597H21.4ZM5.4 29.7597L4.4 28.0597L5.4 26.3596H7.4L8.4 28.0597L7.4 29.7597H5.4ZM7.4 18.9597L8.4 20.6597L7.4 22.4597H5.4L4.4 20.6597L5.4 18.9597H7.4ZM10.6 20.8596L11.6 22.5597L10.6 24.2597H8.60001L7.60001 22.5597L8.60001 20.8596H10.6ZM8.60001 27.9597L7.60001 26.2597L8.60001 24.5597H10.6L11.6 26.2597L10.6 27.9597H8.60001ZM11.8 26.0597L10.8 24.3596L11.8 22.6597H13.8L14.8 24.3596L13.8 26.0597H11.8ZM16.9 20.8596L17.9 22.5597L16.9 24.2597H15L14 22.5597L15 20.8596H16.9ZM14.9 27.9597L13.9 26.2597L14.9 24.5597H16.9L17.9 26.2597L16.9 27.9597H14.9ZM18.1 26.0597L17.1 24.3596L18.1 22.6597H20L21 24.3596L20 26.0597H18.1ZM20.1 18.9597L21.1 20.6597L20.1 22.4597H18.1L17.1 20.6597L18.1 18.9597H20.1ZM16.9 17.1597L17.9 18.8596L16.9 20.5597H15L14 18.8596L15 17.1597H16.9ZM13.7 18.9597L14.7 20.6597L13.7 22.4597H11.7L10.7 20.6597L11.7 18.9597H13.7ZM10.5 17.1597L11.5 18.8596L10.5 20.5597H8.5L7.5 18.8596L8.5 17.1597H10.5ZM7.3 22.6597L8.3 24.3596L7.3 26.0597H5.4L4.4 24.3596L5.4 22.6597H7.3ZM8.5 31.6597L7.5 29.8596L8.5 28.1597H10.4L11.4 29.8596L10.4 31.6597H8.5ZM11.7 29.7597L10.7 28.0597L11.7 26.3596H13.7L14.7 28.0597L13.7 29.7597H11.7ZM14.9 31.6597L13.9 29.8596L14.9 28.1597H16.9L17.9 29.8596L16.9 31.6597H14.9ZM18.1 29.7597L17.1 28.0597L18.1 26.3596H20.1L21 28.0597L20.1 29.7597H18.1ZM21.3 27.9597L20.3 26.2597L21.3 24.5597H23.2L24.2 26.2597L23.2 27.9597H21.3ZM21.3 24.2597L20.3 22.5597L21.3 20.8596H23.3L24.3 22.5597L23.3 24.2597H21.3ZM20.1 15.3596L21.1 17.0597L20.1 18.7597H18.1L17.1 17.0597L18.1 15.3596H20.1ZM16.9 13.4597L17.9 15.1597L16.9 16.8596H14.9L14 15.1597L14.9 13.4597H16.9ZM13.8 15.3596L14.7 17.0597L13.8 18.7597H11.8L10.8 17.0597L11.8 15.3596H13.8ZM10.6 13.4597L11.6 15.1597L10.6 16.8596H8.60001L7.60001 15.1597L8.60001 13.4597H10.6ZM7.4 15.3596L8.4 17.0597L7.4 18.7597H5.4L4.4 17.0597L5.4 15.3596H7.4ZM5.5 33.4597L4.5 31.7597L5.5 30.0597H7.4L8.4 31.7597L7.4 33.4597H5.5ZM8.7 35.2597L7.7 33.5597L8.7 31.8596H10.7L11.7 33.5597L10.7 35.2597H8.7ZM11.9 33.4597L10.9 31.7597L11.9 30.0597H13.9L14.9 31.7597L13.9 33.4597H11.9ZM15.1 35.2597L14.1 33.5597L15.1 31.8596H17L18 33.5597L17 35.2597H15.1ZM18.3 33.4597L17.3 31.7597L18.3 30.0597H20.3L21.3 31.7597L20.3 33.4597H18.3ZM21.5 35.2597L20.5 33.5597L21.5 31.8596H23.5L24.5 33.5597L23.5 35.2597H21.5ZM23.5 13.4597L24.5 15.1597L23.5 16.8596H21.5L20.5 15.1597L21.5 13.4597H23.5ZM20.3 11.6597L21.3 13.3596L20.3 15.0597H18.3L17.3 13.3596L18.3 11.6597H20.3ZM18.1 11.5597L17.1 13.2597H15.1L14.2 11.5597L15.1 9.75967H17.1L18.1 11.5597ZM13.9 11.7597L14.9 13.4597L13.9 15.1597H12L11 13.4597L12 11.7597H13.9ZM11.7 11.5597L10.7 13.3596H8.7L7.7 11.5597L8.7 9.85965H10.7L11.7 11.5597ZM7.5 11.6597L8.5 13.4597L7.5 15.1597H5.5L4.5 13.4597L5.5 11.6597H7.5ZM5.5 37.1597L4.5 35.4597L5.5 33.7597H7.5L8.5 35.4597L7.5 37.1597H5.5ZM7.7 37.3596L8.7 35.6597H10.7L11.7 37.3596L10.7 39.0597H8.7L7.7 37.3596ZM11.9 37.2597L10.9 35.4597L11.9 33.7597H13.9L14.9 35.4597L13.9 37.2597H11.9ZM14.1 37.3596L15.1 35.6597H17L18 37.3596L17 39.0597H15.1L14.1 37.3596ZM18.2 37.2597L17.2 35.5597L18.2 33.7597H20.2L21.2 35.5597L20.2 37.2597H18.2ZM20.4 37.3596L21.4 35.6597H23.4L24.4 37.3596L23.4 39.0597H21.4L20.4 37.3596ZM24.6 18.8596L23.6 17.1597L24.6 15.4597H26.6L27.6 17.1597L26.6 18.8596H24.6ZM27.5 13.4597L26.6 15.1597H24.6L23.6 13.4597L24.6 11.7597H26.6L27.5 13.4597ZM24.3 11.6597L23.3 13.3596H21.3L20.3 11.6597L21.3 9.85965H23.3L24.3 11.6597ZM18.1 8.15967H20.1L21.1 9.85965L20.1 11.5597H18.1L17.1 9.85965L18.1 8.15967ZM11.7 8.15967H13.7L14.7 9.85965L13.7 11.5597H11.7L10.7 9.85965L11.7 8.15967ZM5.4 8.15967H7.3L8.3 9.85965L7.3 11.5597H5.4L4.4 9.85965L5.4 8.15967ZM2.2 10.0597H4.2L5.2 11.7597L4.2 13.4597H2.2L1.2 11.7597L2.2 10.0597ZM2.2 13.7597H4.2L5.2 15.4597L4.2 17.1597H2.2L1.2 15.4597L2.2 13.7597ZM2.2 17.4597H4.2L5.2 19.1597L4.2 20.8596H2.2L1.2 19.1597L2.2 17.4597ZM2.2 21.0597H4.2L5.2 22.8596L4.2 24.5597H2.2L1.2 22.8596L2.2 21.0597ZM2.2 24.6597H4.2L5.2 26.4597L4.2 28.1597H2.2L1.2 26.4597L2.2 24.6597ZM2.2 28.2597H4.2L5.2 29.9597L4.2 31.7597H2.2L1.2 29.9597L2.2 28.2597ZM2.2 31.9597H4.2L5.2 33.6597L4.2 35.4597H2.2L1.3 33.6597L2.2 31.9597ZM1.2 37.3596L2.2 35.6597H4.10001L5.10001 37.3596L4.10001 39.0597H2.2L1.2 37.3596ZM7.3 40.9597H5.3L4.3 39.2597L5.3 37.5597H7.3L8.3 39.2597L7.3 40.9597ZM13.7 40.9597H11.7L10.7 39.2597L11.7 37.5597H13.7L14.7 39.2597L13.7 40.9597ZM20.1 40.9597H18.1L17.1 39.2597L18.1 37.4597H20.1L21 39.2597L20.1 40.9597ZM26.5 40.9597H24.6L23.6 39.1597L24.6 37.4597H26.5L27.5 39.1597L26.5 40.9597ZM26.5 37.3596H24.5L23.6 35.5597L24.5 33.8596H26.5L27.5 35.5597L26.5 37.3596ZM26.5 33.7597H24.5L23.5 32.0597L24.5 30.2597H26.5L27.5 32.0597L26.5 33.7597ZM26.5 30.0597H24.5L23.5 28.3596L24.5 26.5597H26.5L27.5 28.3596L26.5 30.0597ZM26.5 26.3596H24.5L23.5 24.6597L24.5 22.9597H26.5L27.5 24.6597L26.5 26.3596ZM26.5 22.6597H24.5L23.5 20.9597L24.5 19.2597H26.5L27.5 20.9597L26.5 22.6597Z" fill="#4D4D4D"/>
<path d="M28.8 51.5597H0V43.5597H28.8V51.5597Z" fill="white"/>
<path d="M27.4001 8.15971C23.8668 6.89304 20.3334 6.12636 16.8001 5.85969L15.8001 1.35969C15.6001 0.959689 15.3001 0.559689 14.7001 0.359689C14.0001 0.259689 13.3001 0.659689 13.1001 1.35969L12.0001 5.85969C8.46676 6.12636 4.93343 6.89304 1.40009 8.15971C0.600093 8.45971 0.100098 9.2597 0.100098 10.0597V41.0597H4.1001V11.4597C10.9001 9.25969 17.9001 9.25969 24.8001 11.4597V41.0597H28.8001V10.0597C28.8001 9.2597 28.2001 8.45971 27.4001 8.15971Z" fill="#FF8C00"/>
<path d="M20.4 14.6597C19.7 14.5597 19.0001 14.8597 18.7001 15.5597L14.4 24.3597L10.1001 15.5597C9.80005 14.8597 9.10005 14.5597 8.50005 14.6597C7.80005 14.8597 7.30005 15.4597 7.30005 16.1597V41.0597H10.3V22.7597L13.1001 28.4597C13.3001 28.9597 13.8 29.2597 14.4 29.2597C15 29.2597 15.5 28.9597 15.8 28.4597L18.5 22.7597V41.0597H21.5V16.1597C21.5 15.4597 21.1 14.8597 20.4 14.6597Z" fill="#FF8C00"/>
</svg>
