<svg width="220" height="52" viewBox="0 0 220 52" fill="none" xmlns="http://www.w3.org/2000/svg">
<path d="M43.2 15.5444H45.8C47.1333 15.5444 48.2 15.7111 49 16.0444C49.8 16.4444 50.4666 17.0111 51 17.7444C51.6 18.5444 52.3 19.7111 53.1 21.2444L55.1 25.5444L57.2 21.2444C58 19.7111 58.6666 18.5444 59.2 17.7444C59.8 17.0111 60.5 16.4444 61.3 16.0444C62.1 15.7111 63.1666 15.5444 64.5 15.5444H67.1V40.7444H62.5V20.8444C62.1666 20.8444 61.9333 20.9778 61.8 21.2444C61.6 21.5111 61.3 21.9778 60.9 22.6444L55.1 33.3444L49.4 22.6444C49 21.9778 48.7 21.5111 48.5 21.2444C48.3 20.9778 48.0666 20.8111 47.8 20.7444V40.7444H43.2V15.5444Z" fill="#414042"/>
<path d="M73.2 15.5444H78.3V40.7444H73.2V15.5444Z" fill="#414042"/>
<path d="M85.5 38.6444C84.1667 37.3111 83.5 35.3778 83.5 32.8444V15.5444H88.5V32.8444C88.5 34.1778 88.8 35.1778 89.4 35.8444C90 36.4444 90.9 36.7444 92.1 36.7444H95.1V40.7444H92.1C89.0333 40.7444 86.8333 40.0444 85.5 38.6444Z" fill="#414042"/>
<path d="M100.2 38.6444C98.8666 37.3111 98.2 35.3778 98.2 32.8444V15.5444H103.2V32.8444C103.2 34.1778 103.5 35.1778 104.1 35.8444C104.7 36.4444 105.6 36.7444 106.8 36.7444H109.8V40.7444H106.8C103.733 40.7444 101.533 40.0444 100.2 38.6444Z" fill="#414042"/>
<path d="M115.3 38.8444C113.5 37.3111 112.6 35.0111 112.6 31.9444V24.2444C112.6 21.2444 113.5 18.9777 115.3 17.4444C117.033 15.9111 119.6 15.1444 123 15.1444C125.333 15.1444 127.267 15.5111 128.8 16.2444C130.267 17.0444 131.467 18.2111 132.4 19.7444L128.7 22.3444C127.967 21.1444 127.2 20.3111 126.4 19.8444C125.6 19.3111 124.467 19.0444 123 19.0444C121.133 19.0444 119.8 19.4777 119 20.3444C118.133 21.2111 117.7 22.5111 117.7 24.2444V31.9444C117.7 33.6777 118.133 34.9777 119 35.8444C119.8 36.7111 121.133 37.1444 123 37.1444C124.6 37.1444 125.833 36.8777 126.7 36.3444C127.567 35.8111 128.367 34.9444 129.1 33.7444L132.7 36.4444C131.9 37.5111 131.1 38.3777 130.3 39.0444C129.5 39.7111 128.5 40.2444 127.3 40.6444C126.167 40.9777 124.733 41.1444 123 41.1444C119.6 41.1444 117.033 40.3777 115.3 38.8444Z" fill="#414042"/>
<path d="M137.7 38.6444C136.367 37.3111 135.7 35.3778 135.7 32.8444V15.5444H140.8V32.8444C140.8 34.1778 141.067 35.1778 141.6 35.8444C142.2 36.4444 143.1 36.7444 144.3 36.7444H147.4V40.7444H144.3C141.233 40.7444 139.033 40.0444 137.7 38.6444Z" fill="#414042"/>
<path fill-rule="evenodd" clip-rule="evenodd" d="M152.8 38.8444C151.067 37.3111 150.2 35.0111 150.2 31.9444V24.2444C150.2 21.2444 151.067 18.9777 152.8 17.4444C154.533 15.9111 157.067 15.1444 160.4 15.1444C163.733 15.1444 166.3 15.9111 168.1 17.4444C169.833 18.9777 170.7 21.2444 170.7 24.2444V31.9444C170.7 35.0111 169.833 37.3111 168.1 38.8444C166.3 40.3777 163.733 41.1444 160.4 41.1444C157.067 41.1444 154.533 40.3777 152.8 38.8444ZM164.3 35.8444C165.233 34.9111 165.7 33.6111 165.7 31.9444V24.2444C165.7 22.5777 165.233 21.3111 164.3 20.4444C163.433 19.5111 162.133 19.0444 160.4 19.0444C158.733 19.0444 157.467 19.5111 156.6 20.4444C155.667 21.3111 155.2 22.5777 155.2 24.2444V31.9444C155.2 33.6111 155.667 34.9111 156.6 35.8444C157.467 36.7111 158.733 37.1444 160.4 37.1444C162.133 37.1444 163.433 36.7111 164.3 35.8444Z" fill="#414042"/>
<path d="M177.3 38.8444C175.567 37.3111 174.7 35.0111 174.7 31.9444V24.2444C174.7 21.2444 175.567 18.9777 177.3 17.4444C179.1 15.9111 181.7 15.1444 185.1 15.1444C187.433 15.1444 189.333 15.5111 190.8 16.2444C192.333 17.0444 193.533 18.2111 194.4 19.7444L190.8 22.3444C190.067 21.1444 189.3 20.3111 188.5 19.8444C187.7 19.3111 186.567 19.0444 185.1 19.0444C183.233 19.0444 181.867 19.4777 181 20.3444C180.133 21.2111 179.7 22.5111 179.7 24.2444V31.9444C179.7 33.6777 180.133 34.9777 181 35.8444C181.867 36.7111 183.233 37.1444 185.1 37.1444C186.633 37.1444 187.867 36.8777 188.8 36.3444C189.667 35.8111 190.433 34.9444 191.1 33.7444L194.7 36.4444C193.967 37.5111 193.167 38.3777 192.3 39.0444C191.5 39.7111 190.533 40.2444 189.4 40.6444C188.2 40.9777 186.767 41.1444 185.1 41.1444C181.7 41.1444 179.1 40.3777 177.3 38.8444Z" fill="#414042"/>
<path d="M213.5 26.7444C214.167 27.3444 214.767 28.0778 215.3 28.9444C215.767 29.8778 216.3 31.1111 216.9 32.6444L219.7 40.7444H214.6L211.9 33.1444C211.567 32.2111 211.267 31.5111 211 31.0444C210.733 30.5111 210.333 30.0778 209.8 29.7444C209.333 29.4111 208.633 29.1778 207.7 29.0444L203.7 33.4444V40.7444H198.7V15.5444H203.7V27.0444L213.9 15.5444H219.9L210.9 25.5444C211.9 25.8111 212.767 26.2111 213.5 26.7444Z" fill="#414042"/>
<path fill-rule="evenodd" clip-rule="evenodd" d="M181.9 50.1445C182.1 50.0778 182.3 49.9445 182.5 49.7445L183.3 50.5445C182.9 51.0778 182.233 51.3445 181.3 51.3445C180.433 51.3445 179.833 51.1778 179.5 50.8445C179.1 50.5111 178.9 49.9778 178.9 49.2445V47.7445C178.9 47.1445 179.1 46.6778 179.5 46.3445C179.9 46.0111 180.467 45.8445 181.2 45.8445C181.933 45.8445 182.5 46.0445 182.9 46.4445C183.3 46.7778 183.5 47.2778 183.5 47.9445C183.5 48.2778 183.467 48.5111 183.4 48.6445C183.333 48.8445 183.233 48.9778 183.1 49.0445C182.967 49.1778 182.733 49.2445 182.4 49.2445H180.3V49.3445C180.3 49.9445 180.633 50.2445 181.3 50.2445C181.567 50.2445 181.767 50.2111 181.9 50.1445ZM180.5 47.2445C180.367 47.3778 180.3 47.5778 180.3 47.8445V48.2445H181.6C181.8 48.2445 181.933 48.2111 182 48.1445C182.067 48.0778 182.1 47.9778 182.1 47.8445C182.1 47.5778 182 47.3445 181.8 47.1445C181.667 47.0111 181.467 46.9445 181.2 46.9445C180.933 46.9445 180.7 47.0445 180.5 47.2445Z" fill="#414042"/>
<path d="M185.2 51.2445C185 51.1112 184.8 51.0111 184.6 50.9445C184.467 50.8111 184.3 50.6111 184.1 50.3445L185 49.6445C185.2 49.8445 185.4 49.9778 185.6 50.0445C185.733 50.1778 185.933 50.2445 186.2 50.2445C186.533 50.2445 186.767 50.2111 186.9 50.1445C187.033 50.0111 187.1 49.8778 187.1 49.7445C187.1 49.6112 187.033 49.4778 186.9 49.3445C186.7 49.2778 186.333 49.2111 185.8 49.1445C184.8 48.9445 184.3 48.3778 184.3 47.4445C184.3 46.9778 184.467 46.6111 184.8 46.3445C185.2 46.0111 185.7 45.8445 186.3 45.8445C186.833 45.8445 187.267 45.9445 187.6 46.1445C187.867 46.2778 188.1 46.4778 188.3 46.7445L187.4 47.5445C187.267 47.3445 187.1 47.2111 186.9 47.1445C186.767 47.0111 186.567 46.9445 186.3 46.9445C185.833 46.9445 185.6 47.1111 185.6 47.4445C185.6 47.6445 185.7 47.7778 185.9 47.8445C186.033 47.9111 186.233 47.9778 186.5 48.0445C186.967 48.1111 187.333 48.2111 187.6 48.3445C187.867 48.4778 188.067 48.6445 188.2 48.8445C188.4 49.0445 188.5 49.3445 188.5 49.7445C188.5 50.2778 188.3 50.6778 187.9 50.9445C187.567 51.2111 187 51.3445 186.2 51.3445C185.8 51.3445 185.467 51.3112 185.2 51.2445Z" fill="#414042"/>
<path d="M190.9 47.1445V49.2445C190.9 49.5778 190.967 49.8111 191.1 49.9445C191.167 50.0111 191.3 50.0445 191.5 50.0445H192.4V51.1445H191.5C191.033 51.1445 190.633 51.1111 190.3 51.0445C190.033 50.9111 189.833 50.7111 189.7 50.4445C189.567 50.1111 189.5 49.7111 189.5 49.2445V45.2445C189.5 45.0445 189.467 44.8778 189.4 44.7445C189.333 44.6111 189.2 44.4778 189 44.3445L189.9 43.4445C190.3 43.6445 190.567 43.8778 190.7 44.1445C190.833 44.4111 190.9 44.7445 190.9 45.1445V46.0445H192.4V47.1445H190.9Z" fill="#414042"/>
<path d="M201.9 50.0445V51.1445H196.3V50.1445L198.5 48.2445C198.967 47.7778 199.333 47.4111 199.6 47.1445C199.867 46.8778 200.033 46.6445 200.1 46.4445C200.233 46.1778 200.3 45.9111 200.3 45.6445C200.3 45.3111 200.167 45.0445 199.9 44.8445C199.567 44.5778 199.2 44.4445 198.8 44.4445C198.067 44.4445 197.467 44.7445 197 45.3445L196.4 44.3445C196.733 43.9445 197.133 43.6778 197.6 43.5445C198 43.4111 198.433 43.3445 198.9 43.3445C199.7 43.3445 200.367 43.5445 200.9 43.9445C201.433 44.2778 201.7 44.8445 201.7 45.6445C201.7 46.5111 201.2 47.4111 200.2 48.3445L198.2 50.0445H201.9Z" fill="#414042"/>
<path fill-rule="evenodd" clip-rule="evenodd" d="M203.7 50.5445C203.233 50.0778 203 49.3778 203 48.4445V46.1445C203 45.2778 203.233 44.5778 203.7 44.0445C204.167 43.5778 204.867 43.3445 205.8 43.3445C206.733 43.3445 207.433 43.5778 207.9 44.0445C208.367 44.5778 208.6 45.2778 208.6 46.1445V48.4445C208.6 49.3778 208.367 50.0778 207.9 50.5445C207.433 51.0778 206.733 51.3445 205.8 51.3445C204.867 51.3445 204.167 51.0778 203.7 50.5445ZM206.8 49.7445C207.067 49.4112 207.2 48.9778 207.2 48.4445V46.1445C207.2 45.6111 207.067 45.2111 206.8 44.9445C206.6 44.6111 206.267 44.4445 205.8 44.4445C205.333 44.4445 205 44.6111 204.8 44.9445C204.533 45.2111 204.4 45.6111 204.4 46.1445V48.4445C204.4 48.9778 204.533 49.4112 204.8 49.7445C205 50.0778 205.333 50.2445 205.8 50.2445C206.267 50.2445 206.6 50.0778 206.8 49.7445Z" fill="#414042"/>
<path d="M212.9 43.4445V51.1445H211.4V44.7445L209.7 45.8445V44.5445L211.5 43.4445H212.9Z" fill="#414042"/>
<path d="M219.9 50.0445V51.1445H214.3V50.1445L216.5 48.2445C216.967 47.7778 217.333 47.4111 217.6 47.1445C217.867 46.8778 218.033 46.6445 218.1 46.4445C218.233 46.1778 218.3 45.9111 218.3 45.6445C218.3 45.3111 218.167 45.0445 217.9 44.8445C217.567 44.5778 217.2 44.4445 216.8 44.4445C216.067 44.4445 215.467 44.7445 215 45.3445L214.4 44.3445C214.733 43.9445 215.133 43.6778 215.6 43.5445C216 43.4111 216.433 43.3445 216.9 43.3445C217.7 43.3445 218.367 43.5445 218.9 43.9445C219.433 44.2778 219.7 44.8445 219.7 45.6445C219.7 46.5111 219.2 47.4111 218.2 48.3445L216.2 50.0445H219.9Z" fill="#414042"/>
<path fill-rule="evenodd" clip-rule="evenodd" d="M26.8001 14.7445L27.8001 12.9445L26.7001 10.9445H24.6001L23.5001 9.14448H21.4001L20.3001 7.34448H18.0001L17.0001 9.14448H15.0001L13.9001 7.34448H11.6001L10.6001 9.14448H8.60014L7.50014 7.34448H5.30014L4.20013 9.14448H2.10014L0.900146 11.1445L2.00014 12.9445L0.900146 14.7445L2.00014 16.6445L0.900146 18.4445L2.00014 20.3445L0.900146 22.1445L2.00014 23.9445L0.900146 25.8445L2.00014 27.6445L0.900146 29.5445L2.00014 31.3445L0.900146 33.1445L2.00014 35.0445L0.900146 36.8445L2.10014 38.8445H4.20013L5.30014 40.6445H7.50014L8.60014 38.8445H10.6001L11.6001 40.6445H13.9001L15.0001 38.8445H17.0001L18.0001 40.6445H20.3001L21.4001 38.8445H23.4001L24.4001 40.6445H26.7001L27.8001 38.7445L26.8001 36.8445L27.8001 35.0445L26.8001 33.1445L27.8001 31.3445L26.8001 29.5445L27.8001 27.6445L26.8001 25.8445L27.8001 23.9445L26.8001 22.1445L27.8001 20.3445L26.8001 18.4445L27.8001 16.6445L26.8001 14.7445ZM23.4001 16.6445L24.4001 18.4445L23.4001 20.1445H21.4001L20.4001 18.4445L21.4001 16.6445H23.4001ZM21.4001 31.1445L20.5001 29.4445L21.4001 27.7445H23.4001L24.4001 29.4445L23.4001 31.1445H21.4001ZM5.50014 29.3445L4.50014 27.6445L5.50014 25.8445H7.50014L8.40015 27.6445L7.50014 29.3445H5.50014ZM7.40015 18.5445L8.40015 20.2445L7.40015 21.9445H5.50014L4.50014 20.2445L5.50014 18.5445H7.40015ZM10.5001 20.3445L11.5001 22.0445L10.5001 23.8445H8.60014L7.60014 22.0445L8.60014 20.3445H10.5001ZM8.50014 27.4445L7.50014 25.7445L8.50014 24.0445H10.5001L11.5001 25.7445L10.5001 27.4445H8.50014ZM11.7001 25.6445L10.7001 23.9445L11.7001 22.2445H13.6001L14.6001 23.9445L13.6001 25.6445H11.7001ZM16.9001 20.3445L17.9001 22.0445L16.9001 23.8445H14.9001L13.9001 22.0445L14.9001 20.3445H16.9001ZM14.9001 27.4445L14.0001 25.7445L14.9001 24.0445H16.9001L17.9001 25.7445L16.9001 27.4445H14.9001ZM18.1001 25.6445L17.1001 23.9445L18.1001 22.2445H20.1001L21.1001 23.9445L20.1001 25.6445H18.1001ZM20.1001 18.5445L21.1001 20.2445L20.1001 21.9445H18.1001L17.1001 20.2445L18.1001 18.5445H20.1001ZM16.9001 16.6445L17.9001 18.4445L16.9001 20.1445H14.9001L13.9001 18.4445L14.9001 16.6445H16.9001ZM13.7001 18.5445L14.7001 20.2445L13.7001 21.9445H11.8001L10.8001 20.2445L11.8001 18.5445H13.7001ZM10.5001 16.6445L11.5001 18.4445L10.5001 20.1445H8.50014L7.50014 18.4445L8.50014 16.6445H10.5001ZM7.30014 22.2445L8.30014 23.9445L7.30014 25.6445H5.30014L4.30014 23.9445L5.30014 22.2445H7.30014ZM8.50014 31.1445L7.50014 29.4445L8.50014 27.7445H10.5001L11.5001 29.4445L10.5001 31.1445H8.50014ZM11.7001 29.3445L10.7001 27.6445L11.7001 25.8445H13.7001L14.7001 27.6445L13.7001 29.3445H11.7001ZM14.9001 31.1445L13.9001 29.4445L14.9001 27.7445H16.8001L17.8001 29.4445L16.8001 31.1445H14.9001ZM18.1001 29.3445L17.1001 27.6445L18.1001 25.8445H20.1001L21.1001 27.6445L20.1001 29.3445H18.1001ZM21.3001 27.4445L20.3001 25.7445L21.3001 24.0445H23.3001L24.3001 25.7445L23.3001 27.4445H21.3001ZM21.3001 23.8445L20.3001 22.0445L21.3001 20.3445H23.3001L24.3001 22.0445L23.3001 23.8445H21.3001ZM20.1001 14.8445L21.0001 16.5445L20.1001 18.2445H18.1001L17.1001 16.5445L18.1001 14.8445H20.1001ZM16.9001 13.0445L17.9001 14.7445L16.9001 16.4445H14.9001L13.9001 14.7445L14.9001 13.0445H16.9001ZM13.7001 14.8445L14.7001 16.5445L13.7001 18.2445H11.7001L10.7001 16.5445L11.7001 14.8445H13.7001ZM10.5001 13.0445L11.5001 14.7445L10.5001 16.4445H8.60014L7.60014 14.7445L8.60014 13.0445H10.5001ZM7.30014 14.8445L8.30014 16.5445L7.30014 18.2445H5.30014L4.30014 16.5445L5.30014 14.8445H7.30014ZM5.30014 32.9445L4.30014 31.2445L5.30014 29.5445H7.30014L8.30014 31.2445L7.30014 32.9445H5.30014ZM8.50014 34.8445L7.50014 33.1445L8.50014 31.4445H10.5001L11.5001 33.1445L10.5001 34.8445H8.50014ZM11.7001 32.9445L10.7001 31.2445L11.7001 29.5445H13.6001L14.6001 31.2445L13.6001 32.9445H11.7001ZM14.9001 34.8445L13.9001 33.1445L14.9001 31.4445H16.9001L17.9001 33.1445L16.9001 34.8445H14.9001ZM18.1001 32.9445L17.1001 31.2445L18.1001 29.5445H20.1001L21.1001 31.2445L20.1001 32.9445H18.1001ZM21.3001 34.8445L20.3001 33.1445L21.3001 31.4445H23.2001L24.2001 33.1445L23.2001 34.8445H21.3001ZM23.3001 13.0445L24.3001 14.7445L23.3001 16.4445H21.3001L20.4001 14.7445L21.3001 13.0445H23.3001ZM20.2001 11.1445L21.1001 12.8445L20.2001 14.6445H18.2001L17.2001 12.8445L18.2001 11.1445H20.2001ZM18.0001 11.0445L17.0001 12.7445H15.0001L14.0001 11.0445L15.0001 9.34448H17.0001L18.0001 11.0445ZM13.8001 11.1445L14.8001 12.8445L13.8001 14.5445H11.8001L10.8001 12.8445L11.8001 11.1445H13.8001ZM11.6001 11.0445L10.6001 12.7445H8.70013L7.70013 11.0445L8.70013 9.34448H10.6001L11.6001 11.0445ZM7.50014 11.1445L8.40015 12.8445L7.50014 14.5445H5.50014L4.50014 12.8445L5.50014 11.1445H7.50014ZM5.50014 36.6445L4.50014 34.9445L5.50014 33.2445H7.50014L8.50014 34.9445L7.50014 36.6445H5.50014ZM7.70013 36.7445L8.70013 35.0445H10.6001L11.6001 36.7445L10.6001 38.4445H8.70013L7.70013 36.7445ZM11.8001 36.6445L10.9001 34.9445L11.8001 33.2445H13.8001L14.8001 34.9445L13.8001 36.6445H11.8001ZM14.0001 36.7445L15.0001 35.0445H17.0001L18.0001 36.7445L17.0001 38.5445H15.0001L14.0001 36.7445ZM18.2001 36.5445L17.2001 34.8445L18.2001 33.1445H20.2001L21.2001 34.8445L20.2001 36.5445H18.2001ZM20.4001 36.7445L21.4001 34.9445H23.3001L24.3001 36.7445L23.3001 38.4445H21.4001L20.4001 36.7445ZM24.5001 18.1445L23.6001 16.4445L24.5001 14.7445H26.5001L27.5001 16.4445L26.5001 18.1445H24.5001ZM27.5001 12.8445L26.5001 14.5445H24.5001L23.5001 12.8445L24.5001 11.0445H26.5001L27.5001 12.8445ZM24.3001 11.0445L23.3001 12.7445H21.3001L20.4001 11.0445L21.3001 9.34448H23.3001L24.3001 11.0445ZM18.2001 7.44448H20.1001L21.1001 9.14448L20.1001 10.9445H18.2001L17.2001 9.14448L18.2001 7.44448ZM11.8001 7.44448H13.8001L14.8001 9.24448L13.8001 10.9445H11.8001L10.8001 9.24448L11.8001 7.44448ZM5.40015 7.44448H7.40015L8.40015 9.14448L7.40015 10.8445H5.40015L4.40015 9.14448L5.40015 7.44448ZM2.20013 9.24448H4.20013L5.20013 10.9445L4.20013 12.6445H2.20013L1.20013 10.9445L2.20013 9.24448ZM2.20013 12.9445H4.20013L5.20013 14.6445L4.20013 16.3445H2.20013L1.30014 14.6445L2.20013 12.9445ZM2.20013 16.6445H4.10014L5.10014 18.3445L4.10014 20.0445H2.20013L1.20013 18.3445L2.20013 16.6445ZM2.20013 20.3445H4.10014L5.10014 22.0445L4.10014 23.7445H2.20013L1.20013 22.0445L2.20013 20.3445ZM2.20013 24.0445H4.20013L5.10014 25.7445L4.20013 27.4445H2.20013L1.20013 25.7445L2.20013 24.0445ZM2.20013 27.7445H4.20013L5.20013 29.4445L4.20013 31.1445H2.20013L1.20013 29.4445L2.20013 27.7445ZM2.20013 31.4445H4.20013L5.20013 33.1445L4.20013 34.8445H2.20013L1.20013 33.1445L2.20013 31.4445ZM1.20013 36.8445L2.20013 35.1445H4.20013L5.20013 36.8445L4.20013 38.5445H2.20013L1.20013 36.8445ZM7.40015 40.3445H5.40015L4.40015 38.6445L5.40015 36.9445H7.40015L8.40015 38.6445L7.40015 40.3445ZM13.7001 40.3445H11.8001L10.8001 38.6445L11.8001 36.9445H13.7001L14.7001 38.6445L13.7001 40.3445ZM20.1001 40.3445H18.1001L17.1001 38.6445L18.1001 36.9445H20.1001L21.1001 38.6445L20.1001 40.3445ZM26.5001 40.3445H24.5001L23.5001 38.6445L24.5001 36.9445H26.5001L27.5001 38.6445L26.5001 40.3445ZM26.5001 36.6445H24.5001L23.5001 34.9445L24.5001 33.2445H26.5001L27.5001 34.9445L26.5001 36.6445ZM26.5001 32.9445H24.5001L23.5001 31.2445L24.5001 29.5445H26.5001L27.5001 31.2445L26.5001 32.9445ZM26.5001 29.2445H24.5001L23.5001 27.5445L24.5001 25.8445H26.5001L27.4001 27.5445L26.5001 29.2445ZM26.5001 25.5445H24.6001L23.6001 23.8445L24.6001 22.1445H26.5001L27.5001 23.8445L26.5001 25.5445ZM26.5001 21.8445H24.6001L23.6001 20.1445L24.6001 18.4445H26.5001L27.5001 20.1445L26.5001 21.8445Z" fill="#BCBEC0"/>
<path d="M28.8 51.1444H0V43.1444H28.8V51.1444Z" fill="#414042"/>
<path d="M27.4 7.84444C23.8667 6.51111 20.3333 5.74444 16.8 5.54444L15.7 1.04444C15.6 0.544439 15.2 0.144439 14.7 0.0444394C14 -0.155561 13.2 0.344439 13 1.04444L12 5.54444C8.4 5.74444 4.86668 6.51111 1.40001 7.84444C0.600009 8.14444 0 8.84444 0 9.64444V40.6444H4V11.1444C10.9 8.94444 17.8 8.94444 24.7 11.1444V40.6444H28.7V9.64444C28.7 8.84444 28.2 8.14444 27.4 7.84444Z" fill="#FF8C00"/>
<path d="M20.3 14.3445C19.7 14.1445 19.0001 14.5445 18.6001 15.1445L14.4001 23.9445L10.1001 15.1445C9.80005 14.5445 9.10005 14.1445 8.40005 14.3445C7.70005 14.5445 7.30005 15.1445 7.30005 15.8445V40.6445H10.3V22.3445L13 28.0445C13.3 28.5445 13.8001 28.9445 14.4001 28.9445C15.0001 28.9445 15.5 28.5445 15.7 28.0445L18.5 22.3445V40.6445H21.5V15.8445C21.5 15.1445 21 14.5445 20.3 14.3445Z" fill="#FF8C00"/>
</svg>
